Coordinates
version=1
nRows=32
nColumns=12
inDegrees=yes

Units are S.I. units (second, meters, Newtons, ...)
Angles are in degrees

endheader
time	SC_y	SC_z	SC_x	AC_y	AC_z	AC_x	GH_y	GH_z	GH_yy	EL_x	PS_y
       0.0              -47.02          1.611          51.32          57.42          -3.42           14.4          179.2          13.22           16.2          88.87          107.7
   0.02583              -47.02          1.613          51.32          57.41          -3.42           14.4          179.2          13.21          16.22          88.87          107.7
   0.05167              -47.02          1.615          51.32          57.41          -3.42           14.4          179.2          13.21          16.24          88.87          107.7
    0.0775              -47.01          1.617          51.32          57.41         -3.419          14.39          179.1          13.21          16.27          88.87          107.7
    0.1033              -47.01          1.619          51.32          57.41         -3.419          14.39          179.1           13.2          16.29          88.87          107.7
    0.1292               -47.0          1.622          51.32           57.4         -3.419          14.38          179.1           13.2          16.32          88.87          107.7
     0.155               -47.0          1.625          51.33           57.4         -3.418          14.38          179.1          13.19          16.35          88.87          107.7
    0.1808              -46.99          1.628          51.33           57.4         -3.418          14.37          179.0          13.19          16.38          88.87          107.7
    0.2067              -46.99          1.631          51.33          57.39         -3.417          14.36          179.0          13.18          16.41          88.87          107.7
    0.2325              -46.98          1.634          51.33          57.39         -3.417          14.36          179.0          13.17          16.44          88.87          107.7
    0.2583              -46.97          1.638          51.34          57.39         -3.417          14.35          178.9          13.17          16.48          88.87          107.7
    0.2842              -46.97          1.642          51.34          57.38         -3.416          14.34          178.9          13.16          16.52          88.87          107.7
      0.31              -46.96          1.646          51.34          57.38         -3.416          14.34          178.9          13.15          16.57          88.87          107.7
    0.3358              -46.95           1.65          51.35          57.37         -3.415          14.33          178.8          13.15          16.61          88.87          107.7
    0.3617              -46.94          1.655          51.35          57.37         -3.414          14.32          178.8          13.14          16.66          88.88          107.7
    0.3875              -46.93           1.66          51.35          57.36         -3.414          14.31          178.7          13.13          16.72          88.88          107.7
    0.4133              -46.92          1.666          51.36          57.35         -3.413           14.3          178.6          13.12          16.78          88.88          107.7
    0.4392              -46.91          1.672          51.36          57.35         -3.412          14.28          178.6           13.1          16.84          88.88          107.7
     0.465               -46.9          1.679          51.37          57.34         -3.411          14.27          178.5          13.09          16.91          88.88          107.7
    0.4908              -46.88          1.687          51.38          57.33          -3.41          14.25          178.4          13.08          16.99          88.88          107.6
    0.5167              -46.87          1.695          51.38          57.32         -3.409          14.24          178.4          13.06          17.08          88.88          107.6
    0.5425              -46.85          1.704          51.39          57.31         -3.408          14.22          178.3          13.05          17.17          88.88          107.6
    0.5684              -46.83          1.714           51.4           57.3         -3.407           14.2          178.2          13.03          17.28          88.88          107.6
    0.5942              -46.81          1.725          51.41          57.29         -3.405          14.18          178.1          13.01          17.39          88.89          107.6
      0.62              -46.79          1.737          51.42          57.28         -3.404          14.16          177.9          12.99          17.52          88.89          107.6
    0.6459              -46.76          1.751          51.43          57.26         -3.402          14.13          177.8          12.96          17.66          88.89          107.6
    0.6717              -46.74          1.766          51.44          57.25           -3.4           14.1          177.7          12.93          17.82          88.89          107.6
    0.6975               -46.7          1.784          51.45          57.23         -3.398          14.06          177.5           12.9           18.0          88.89          107.5
    0.7234              -46.67          1.803          51.47          57.21         -3.395          14.03          177.3          12.87          18.21           88.9          107.5
    0.7492              -46.63          1.825          51.48          57.18         -3.392          13.98          177.1          12.83          18.44           88.9          107.5
     0.775              -46.58          1.851           51.5          57.15         -3.389          13.93          176.8          12.78           18.7          88.91          107.5
    0.8009              -46.53           1.88          51.53          57.12         -3.385          13.88          176.5          12.73          19.01          88.91          107.4
